<svg viewBox="0 0 3957 827" xmlns="http://www.w3.org/2000/svg" xml:space="preserve" style="fill-rule:evenodd;clip-rule:evenodd;stroke-linejoin:round;stroke-miterlimit:2"><path d="M598 818H164c-24 0-43-20-43-43V464c0-24-19-43-43-43H52c-24 0-43-19-43-43V52A43 43 0 0 1 52 9h546a43 43 0 0 1 43 43v723c0 23-20 43-43 43Zm-35-62c10 0 19-9 19-20v-21c0-10-9-19-19-19h-24v6h24c7 0 13 7 13 13v22c0 7-6 12-13 12l-97 1 17-12-4-5-25 17c-1 1-2 2-1 3l1 2 25 17 4-5-17-11h97Zm-40-120a103 103 0 0 1-48 12c-28 0-50-10-65-30-16-20-24-48-24-84 0-35 8-63 24-83 15-20 37-30 65-30a102 102 0 0 1 48 12v30c-7-6-15-10-23-13-8-4-17-5-25-5-19 0-34 7-43 22-10 15-15 37-15 67s5 53 15 68c9 14 24 22 43 22a80 80 0 0 0 48-18v30Zm-252 12v-59h-51v59h51ZM126 247V112h30v149l1 22c0 5 1 8 3 11 3 6 7 10 13 13s17 4 26 4c8 0 19-1 25-4s11-7 14-13l3-11 1-22V112h29v135c0 22-1 38-4 48-3 9-7 17-14 23s-14 10-22 13c-9 3-22 4-32 4-11 0-24-1-32-4-9-3-16-7-22-13-7-6-12-14-15-23-3-10-4-26-4-48Zm407-110v-25H366v25h69v194h30V137h68Z" style="fill:#fff"/><path d="M847 594V402h51v192c0 28 4 49 14 62s25 19 46 19c24 0 42-8 55-25s19-41 19-73V402h51v310h-51v-47a96 96 0 0 1-91 55c-32 0-56-11-71-32-16-20-23-52-23-94ZM1290 314v88h115v39h-115v168c0 23 4 39 13 48 8 9 23 14 45 14h57v41h-62c-38 0-65-8-81-23-16-16-23-42-23-80V441h-83v-39h83v-88h51ZM1554 600h98v112h-98zM2067 696a177 177 0 0 1-86 24c-48 0-86-15-113-44-27-28-40-68-40-119s13-91 40-120c27-28 65-43 113-43a165 165 0 0 1 86 24v53c-13-12-27-20-40-26-14-5-29-8-46-8-32 0-57 11-74 31-17 21-26 50-26 89 0 38 9 67 26 88s42 31 74 31a119 119 0 0 0 87-33l-1 53ZM2271 437c-26 0-45 10-59 30-13 21-19 50-19 90 0 39 6 69 19 89 14 20 33 30 59 30s46-10 59-30 20-50 20-89c0-40-7-69-20-90a66 66 0 0 0-59-30Zm0-43c43 0 76 14 99 42s34 68 34 121-11 93-34 121-56 42-99 42-76-14-98-42c-23-28-34-68-34-121s11-93 34-121c22-28 55-42 98-42ZM2665 441V281h51v431h-51v-40a88 88 0 0 1-83 48c-37 0-67-15-88-44-22-29-32-69-32-120s10-90 32-119 51-43 88-43c19 0 35 4 50 12 14 8 25 20 33 35Zm-150 116c0 39 7 69 19 89 13 20 31 30 56 30 24 0 43-10 56-30s19-50 19-89-6-69-19-89a62 62 0 0 0-56-31c-25 0-43 10-56 30-12 21-19 50-19 90ZM3065 531v25h-221v2c-1 42 7 72 24 91 18 18 43 27 75 27 16 0 33-2 51-7 17-6 36-13 56-24v51a344 344 0 0 1-108 24c-48 0-86-15-113-44s-40-68-40-119c0-50 13-89 40-119 26-29 62-44 106-44 39 0 70 14 93 40 23 27 35 59 37 97Zm-51-15c-3-21-10-40-24-55-13-16-32-24-57-24s-45 8-61 25a86 86 0 0 0-26 54h168ZM3318 254c-24 42-43 84-55 126a453 453 0 0 0 0 252c12 42 31 84 55 127h-44c-28-44-49-87-62-129a397 397 0 0 1 0-248c13-42 34-85 62-128h44ZM3505 254h44c28 43 49 86 62 128a397 397 0 0 1 0 249c-13 41-34 84-62 128h-44c24-43 43-86 55-127a451 451 0 0 0 0-252c-12-42-31-84-55-126ZM3858 612h86v73l-54 106h-59l27-106v-73Zm-4-210h87v100h-87V402Z" style="fill:#fff;fill-rule:nonzero" transform="translate(3 -101)"/></svg>